<?xml version="1.0" standalone="no"?><!-- Generator: Gravit.io --><svg xmlns="http://www.w3.org/2000/svg" xmlns:xlink="http://www.w3.org/1999/xlink" style="isolation:isolate" viewBox="0 0 320 80" width="320" height="80"><defs><clipPath id="_clipPath_IgBWrbY36envPrsJUbcDs46mN36kC90U"><rect width="320" height="80"/></clipPath></defs><g clip-path="url(#_clipPath_IgBWrbY36envPrsJUbcDs46mN36kC90U)">
<path d=" M 177.875 56.3 L 177.875 56.3 L 177.875 56.3 Q 177.875 54.7 176.7 53.7 L 176.7 53.7 L 176.7 53.7 Q 175.525 52.7 173.75 51.875 L 173.75 51.875 L 173.75 51.875 Q 171.975 51.05 169.9 50.175 L 169.9 50.175 L 169.9 50.175 Q 167.825 49.3 166.05 48.025 L 166.05 48.025 L 166.05 48.025 Q 164.275 46.75 163.1 44.85 L 163.1 44.85 L 163.1 44.85 Q 161.925 42.95 161.925 40 L 161.925 40 L 161.925 40 Q 161.925 37.45 162.775 35.575 L 162.775 35.575 L 162.775 35.575 Q 163.625 33.7 165.2 32.45 L 165.2 32.45 L 165.2 32.45 Q 166.775 31.2 168.925 30.6 L 168.925 30.6 L 168.925 30.6 Q 171.075 30 173.725 30 L 173.725 30 L 173.725 30 Q 176.775 30 179.475 30.525 L 179.475 30.525 L 179.475 30.525 Q 182.175 31.05 183.925 32.05 L 183.925 32.05 L 181.775 37.8 L 181.775 37.8 Q 180.675 37.1 178.475 36.525 L 178.475 36.525 L 178.475 36.525 Q 176.275 35.95 173.725 35.95 L 173.725 35.95 L 173.725 35.95 Q 171.325 35.95 170.05 36.9 L 170.05 36.9 L 170.05 36.9 Q 168.775 37.85 168.775 39.45 L 168.775 39.45 L 168.775 39.45 Q 168.775 40.95 169.95 41.95 L 169.95 41.95 L 169.95 41.95 Q 171.125 42.95 172.9 43.8 L 172.9 43.8 L 172.9 43.8 Q 174.675 44.65 176.75 45.55 L 176.75 45.55 L 176.75 45.55 Q 178.825 46.45 180.6 47.725 L 180.6 47.725 L 180.6 47.725 Q 182.375 49 183.55 50.875 L 183.55 50.875 L 183.55 50.875 Q 184.725 52.75 184.725 55.55 L 184.725 55.55 L 184.725 55.55 Q 184.725 58.35 183.8 60.375 L 183.8 60.375 L 183.8 60.375 Q 182.875 62.4 181.2 63.75 L 181.2 63.75 L 181.2 63.75 Q 179.525 65.1 177.15 65.75 L 177.15 65.75 L 177.15 65.75 Q 174.775 66.4 171.925 66.4 L 171.925 66.4 L 171.925 66.4 Q 168.175 66.4 165.325 65.7 L 165.325 65.7 L 165.325 65.7 Q 162.475 65 161.125 64.3 L 161.125 64.3 L 163.325 58.45 L 163.325 58.45 Q 163.875 58.75 164.75 59.1 L 164.75 59.1 L 164.75 59.1 Q 165.625 59.45 166.725 59.75 L 166.725 59.75 L 166.725 59.75 Q 167.825 60.05 169.05 60.25 L 169.05 60.25 L 169.05 60.25 Q 170.275 60.45 171.575 60.45 L 171.575 60.45 L 171.575 60.45 Q 174.625 60.45 176.25 59.425 L 176.25 59.425 L 176.25 59.425 Q 177.875 58.4 177.875 56.3 Z  M 188.875 40.7 L 195.375 40.7 L 195.375 54.9 L 195.375 54.9 Q 195.375 57.95 196.1 59.3 L 196.1 59.3 L 196.1 59.3 Q 196.825 60.65 198.925 60.65 L 198.925 60.65 L 198.925 60.65 Q 200.775 60.65 202 59.55 L 202 59.55 L 202 59.55 Q 203.225 58.45 203.825 56.85 L 203.825 56.85 L 203.825 40.7 L 210.325 40.7 L 210.325 58.1 L 210.325 58.1 Q 210.325 60.15 210.525 62.125 L 210.525 62.125 L 210.525 62.125 Q 210.725 64.1 211.125 65.7 L 211.125 65.7 L 206.225 65.7 L 205.075 62 L 204.875 62 L 204.875 62 Q 203.725 63.9 201.675 65.15 L 201.675 65.15 L 201.675 65.15 Q 199.625 66.4 196.825 66.4 L 196.825 66.4 L 196.825 66.4 Q 194.925 66.4 193.425 65.9 L 193.425 65.9 L 193.425 65.9 Q 191.925 65.4 190.925 64.25 L 190.925 64.25 L 190.925 64.25 Q 189.925 63.1 189.4 61.15 L 189.4 61.15 L 189.4 61.15 Q 188.875 59.2 188.875 56.25 L 188.875 56.25 L 188.875 40.7 Z  M 237.825 65.7 L 231.325 65.7 L 231.325 51.5 L 231.325 51.5 Q 231.325 48.45 230.45 47.1 L 230.45 47.1 L 230.45 47.1 Q 229.575 45.75 227.475 45.75 L 227.475 45.75 L 227.475 45.75 Q 225.625 45.75 224.35 46.825 L 224.35 46.825 L 224.35 46.825 Q 223.075 47.9 222.525 49.5 L 222.525 49.5 L 222.525 65.7 L 216.025 65.7 L 216.025 40.7 L 221.175 40.7 L 221.925 44 L 222.125 44 L 222.125 44 Q 223.275 42.4 225.175 41.2 L 225.175 41.2 L 225.175 41.2 Q 227.075 40 230.075 40 L 230.075 40 L 230.075 40 Q 231.925 40 233.375 40.5 L 233.375 40.5 L 233.375 40.5 Q 234.825 41 235.825 42.15 L 235.825 42.15 L 235.825 42.15 Q 236.825 43.3 237.325 45.275 L 237.325 45.275 L 237.325 45.275 Q 237.825 47.25 237.825 50.15 L 237.825 50.15 L 237.825 65.7 Z  M 255.475 53.2 L 255.475 53.2 L 255.475 53.2 Q 255.475 46.85 258.575 43.425 L 258.575 43.425 L 258.575 43.425 Q 261.675 40 267.275 40 L 267.275 40 L 267.275 40 Q 270.275 40 272.475 40.95 L 272.475 40.95 L 272.475 40.95 Q 274.675 41.9 276.125 43.625 L 276.125 43.625 L 276.125 43.625 Q 277.575 45.35 278.3 47.8 L 278.3 47.8 L 278.3 47.8 Q 279.025 50.25 279.025 53.2 L 279.025 53.2 L 279.025 53.2 Q 279.025 59.55 275.95 62.975 L 275.95 62.975 L 275.95 62.975 Q 272.875 66.4 267.275 66.4 L 267.275 66.4 L 267.275 66.4 Q 264.275 66.4 262.075 65.45 L 262.075 65.45 L 262.075 65.45 Q 259.875 64.5 258.4 62.775 L 258.4 62.775 L 258.4 62.775 Q 256.925 61.05 256.2 58.6 L 256.2 58.6 L 256.2 58.6 Q 255.475 56.15 255.475 53.2 Z  M 262.175 53.2 L 262.175 53.2 L 262.175 53.2 Q 262.175 54.85 262.475 56.25 L 262.475 56.25 L 262.475 56.25 Q 262.775 57.65 263.375 58.7 L 263.375 58.7 L 263.375 58.7 Q 263.975 59.75 264.95 60.325 L 264.95 60.325 L 264.95 60.325 Q 265.925 60.9 267.275 60.9 L 267.275 60.9 L 267.275 60.9 Q 269.825 60.9 271.075 59.05 L 271.075 59.05 L 271.075 59.05 Q 272.325 57.2 272.325 53.2 L 272.325 53.2 L 272.325 53.2 Q 272.325 49.75 271.175 47.625 L 271.175 47.625 L 271.175 47.625 Q 270.025 45.5 267.275 45.5 L 267.275 45.5 L 267.275 45.5 Q 264.875 45.5 263.525 47.3 L 263.525 47.3 L 263.525 47.3 Q 262.175 49.1 262.175 53.2 Z  M 280.925 46.2 L 280.925 40.7 L 284.375 40.7 L 284.375 36 L 290.875 34.15 L 290.875 40.7 L 296.975 40.7 L 296.975 46.2 L 290.875 46.2 L 290.875 55.8 L 290.875 55.8 Q 290.875 58.4 291.4 59.525 L 291.4 59.525 L 291.4 59.525 Q 291.925 60.65 293.375 60.65 L 293.375 60.65 L 293.375 60.65 Q 294.375 60.65 295.1 60.45 L 295.1 60.45 L 295.1 60.45 Q 295.825 60.25 296.725 59.85 L 296.725 59.85 L 297.875 64.85 L 297.875 64.85 Q 296.525 65.5 294.725 65.95 L 294.725 65.95 L 294.725 65.95 Q 292.925 66.4 291.075 66.4 L 291.075 66.4 L 291.075 66.4 Q 287.625 66.4 286 64.625 L 286 64.625 L 286 64.625 Q 284.375 62.85 284.375 58.8 L 284.375 58.8 L 284.375 46.2 L 280.925 46.2 Z  M 300.225 62.4 L 300.225 62.4 L 300.225 62.4 Q 300.225 60.65 301.325 59.625 L 301.325 59.625 L 301.325 59.625 Q 302.425 58.6 304.225 58.6 L 304.225 58.6 L 304.225 58.6 Q 306.125 58.6 307.225 59.625 L 307.225 59.625 L 307.225 59.625 Q 308.325 60.65 308.325 62.4 L 308.325 62.4 L 308.325 62.4 Q 308.325 64.15 307.225 65.2 L 307.225 65.2 L 307.225 65.2 Q 306.125 66.25 304.225 66.25 L 304.225 66.25 L 304.225 66.25 Q 302.425 66.25 301.325 65.2 L 301.325 65.2 L 301.325 65.2 Q 300.225 64.15 300.225 62.4 Z  M 83.625 65.7 L 83.625 30.7 L 90.475 30.7 L 90.475 65.7 L 83.625 65.7 Z  M 98.675 41.5 L 98.675 30.7 L 104.375 30.7 L 102.575 41.5 L 98.675 41.5 Z  M 130.425 65.7 L 123.925 65.7 L 123.925 52.1 L 123.925 52.1 Q 123.925 48.65 123.275 47.2 L 123.275 47.2 L 123.275 47.2 Q 122.625 45.75 120.575 45.75 L 120.575 45.75 L 120.575 45.75 Q 118.875 45.75 117.825 46.675 L 117.825 46.675 L 117.825 46.675 Q 116.775 47.6 116.225 49.05 L 116.225 49.05 L 116.225 65.7 L 109.725 65.7 L 109.725 40.7 L 114.775 40.7 L 115.525 44 L 115.725 44 L 115.725 44 Q 116.875 42.4 118.65 41.2 L 118.65 41.2 L 118.65 41.2 Q 120.425 40 123.225 40 L 123.225 40 L 123.225 40 Q 125.625 40 127.15 40.975 L 127.15 40.975 L 127.15 40.975 Q 128.675 41.95 129.525 44.25 L 129.525 44.25 L 129.525 44.25 Q 130.675 42.3 132.475 41.15 L 132.475 41.15 L 132.475 41.15 Q 134.275 40 136.825 40 L 136.825 40 L 136.825 40 Q 138.925 40 140.4 40.5 L 140.4 40.5 L 140.4 40.5 Q 141.875 41 142.8 42.225 L 142.8 42.225 L 142.8 42.225 Q 143.725 43.45 144.175 45.5 L 144.175 45.5 L 144.175 45.5 Q 144.625 47.55 144.625 50.7 L 144.625 50.7 L 144.625 65.7 L 138.125 65.7 L 138.125 51.65 L 138.125 51.65 Q 138.125 48.7 137.5 47.225 L 137.5 47.225 L 137.5 47.225 Q 136.875 45.75 134.725 45.75 L 134.725 45.75 L 134.725 45.75 Q 132.975 45.75 131.95 46.7 L 131.95 46.7 L 131.95 46.7 Q 130.925 47.65 130.425 49.3 L 130.425 49.3 L 130.425 65.7 Z  M 31.325 65.7 L 31.325 51.05 L 18.525 51.05 L 18.525 65.7 L 11.675 65.7 L 11.675 30.7 L 18.525 30.7 L 18.525 44.95 L 31.325 44.95 L 31.325 30.7 L 38.175 30.7 L 38.175 65.7 L 31.325 65.7 Z  M 44.625 65.7 L 44.625 40.7 L 51.125 40.7 L 51.125 65.7 L 44.625 65.7 Z  M 43.675 33.65 L 43.675 33.65 L 43.675 33.65 Q 43.675 32.2 44.75 31.175 L 44.75 31.175 L 44.75 31.175 Q 45.825 30.15 47.725 30.15 L 47.725 30.15 L 47.725 30.15 Q 49.625 30.15 50.8 31.175 L 50.8 31.175 L 50.8 31.175 Q 51.975 32.2 51.975 33.65 L 51.975 33.65 L 51.975 33.65 Q 51.975 35.1 50.8 36.075 L 50.8 36.075 L 50.8 36.075 Q 49.625 37.05 47.725 37.05 L 47.725 37.05 L 47.725 37.05 Q 45.825 37.05 44.75 36.075 L 44.75 36.075 L 44.75 36.075 Q 43.675 35.1 43.675 33.65 Z  M 56.775 62.5 L 56.775 62.5 L 56.775 62.5 Q 56.775 60.8 57.9 59.8 L 57.9 59.8 L 57.9 59.8 Q 59.025 58.8 60.675 58.8 L 60.675 58.8 L 60.675 58.8 Q 62.775 58.8 63.975 60.2 L 63.975 60.2 L 63.975 60.2 Q 65.175 61.6 65.175 63.9 L 65.175 63.9 L 65.175 63.9 Q 65.175 66.15 64.475 67.775 L 64.475 67.775 L 64.475 67.775 Q 63.775 69.4 62.75 70.475 L 62.75 70.475 L 62.75 70.475 Q 61.725 71.55 60.55 72.175 L 60.55 72.175 L 60.55 72.175 Q 59.375 72.8 58.425 73.1 L 58.425 73.1 L 56.525 70.4 L 56.525 70.4 Q 57.875 69.85 58.875 68.6 L 58.875 68.6 L 58.875 68.6 Q 59.875 67.35 59.975 65.95 L 59.975 65.95 L 59.975 65.95 Q 58.825 66.1 57.8 65.25 L 57.8 65.25 L 57.8 65.25 Q 56.775 64.4 56.775 62.5 Z " fill-rule="evenodd" fill="rgb(255,255,255)"/><path d=" M 244.125 64.85 L 244.125 40.65 L 250.625 40.65 L 250.625 66.7 L 250.625 66.7 Q 250.625 71.25 248.825 73.65 L 248.825 73.65 L 248.825 73.65 Q 247.025 76.05 243.075 76.05 L 243.075 76.05 L 243.075 76.05 Q 241.575 76.05 239.875 75.7 L 239.875 75.7 L 239.875 70.25 L 239.875 70.25 Q 240.075 70.25 240.225 70.275 L 240.225 70.275 L 240.225 70.275 Q 240.375 70.3 240.525 70.3 L 240.525 70.3 L 240.525 70.3 Q 242.775 70.3 243.45 68.85 L 243.45 68.85 L 243.45 68.85 Q 244.125 67.4 244.125 64.85 L 244.125 64.85 Z " fill="rgb(255,255,255)"/><path id="idot" d=" M 243.225 33.6 L 243.225 33.6 L 243.225 33.6 Q 243.225 32.15 244.3 31.125 L 244.3 31.125 L 244.3 31.125 Q 245.375 30.1 247.275 30.1 L 247.275 30.1 L 247.275 30.1 Q 249.175 30.1 250.35 31.125 L 250.35 31.125 L 250.35 31.125 Q 251.525 32.15 251.525 33.6 L 251.525 33.6 L 251.525 33.6 Q 251.525 35.05 250.35 36.025 L 250.35 36.025 L 250.35 36.025 Q 249.175 37 247.275 37 L 247.275 37 L 247.275 37 Q 245.375 37 244.3 36.025 L 244.3 36.025 L 244.3 36.025 Q 243.225 35.05 243.225 33.6 Z " fill="rgb(255,255,255)"/></g></svg>
